<svg width="174" height="62" viewBox="0 0 174 62" fill="none" xmlns="http://www.w3.org/2000/svg">
<g filter="url(#filter0_d_24_3850)">
<path d="M8 22C8 14.268 14.268 8 22 8H152C159.732 8 166 14.268 166 22V40C166 47.732 159.732 54 152 54H22C14.268 54 8 47.732 8 40V22Z" fill="#064733" shape-rendering="crispEdges"/>
<path d="M152 6C160.837 6 168 13.1634 168 22V40C168 48.8366 160.837 56 152 56H22C13.1634 56 6 48.8366 6 40V22C6 13.1634 13.1634 6 22 6H152Z" stroke="#277D63" stroke-opacity="0.69" stroke-width="4" shape-rendering="crispEdges"/>
<path d="M48.8464 29.32C48.6438 28.9467 48.3504 28.664 47.9664 28.472C47.5931 28.2693 47.1504 28.168 46.6384 28.168C45.7531 28.168 45.0438 28.4613 44.5104 29.048C43.9771 29.624 43.7104 30.3973 43.7104 31.368C43.7104 32.4027 43.9878 33.2133 44.5424 33.8C45.1078 34.376 45.8811 34.664 46.8624 34.664C47.5344 34.664 48.0998 34.4933 48.5584 34.152C49.0278 33.8107 49.3691 33.32 49.5824 32.68H46.1104V30.664H52.0624V33.208C51.8598 33.8907 51.5131 34.5253 51.0224 35.112C50.5424 35.6987 49.9291 36.1733 49.1824 36.536C48.4358 36.8987 47.5931 37.08 46.6544 37.08C45.5451 37.08 44.5531 36.84 43.6784 36.36C42.8144 35.8693 42.1371 35.192 41.6464 34.328C41.1664 33.464 40.9264 32.4773 40.9264 31.368C40.9264 30.2587 41.1664 29.272 41.6464 28.408C42.1371 27.5333 42.8144 26.856 43.6784 26.376C44.5424 25.8853 45.5291 25.64 46.6384 25.64C47.9824 25.64 49.1131 25.9653 50.0304 26.616C50.9584 27.2667 51.5718 28.168 51.8704 29.32H48.8464ZM61.9939 32.392C61.9939 32.648 61.9779 32.9147 61.9459 33.192H55.7539C55.7966 33.7467 55.9726 34.1733 56.2819 34.472C56.6019 34.76 56.9913 34.904 57.4499 34.904C58.1326 34.904 58.6073 34.616 58.8739 34.04H61.7859C61.6366 34.6267 61.3646 35.1547 60.9699 35.624C60.5859 36.0933 60.1006 36.4613 59.5139 36.728C58.9273 36.9947 58.2713 37.128 57.5459 37.128C56.6713 37.128 55.8926 36.9413 55.2099 36.568C54.5273 36.1947 53.9939 35.6613 53.6099 34.968C53.2259 34.2747 53.0339 33.464 53.0339 32.536C53.0339 31.608 53.2206 30.7973 53.5939 30.104C53.9779 29.4107 54.5113 28.8773 55.1939 28.504C55.8766 28.1307 56.6606 27.944 57.5459 27.944C58.4099 27.944 59.1779 28.1253 59.8499 28.488C60.5219 28.8507 61.0446 29.368 61.4179 30.04C61.8019 30.712 61.9939 31.496 61.9939 32.392ZM59.1939 31.672C59.1939 31.2027 59.0339 30.8293 58.7139 30.552C58.3939 30.2747 57.9939 30.136 57.5139 30.136C57.0553 30.136 56.6659 30.2693 56.3459 30.536C56.0366 30.8027 55.8446 31.1813 55.7699 31.672H59.1939ZM68.4133 34.68V37H67.0213C66.0293 37 65.256 36.76 64.7013 36.28C64.1466 35.7893 63.8693 34.9947 63.8693 33.896V30.344H62.7813V28.072H63.8693V25.896H66.6053V28.072H68.3973V30.344H66.6053V33.928C66.6053 34.1947 66.6693 34.3867 66.7973 34.504C66.9253 34.6213 67.1386 34.68 67.4373 34.68H68.4133ZM77.3919 37.112C76.5706 37.112 75.8346 36.9787 75.1839 36.712C74.5333 36.4453 74.0106 36.0507 73.6159 35.528C73.2319 35.0053 73.0293 34.376 73.0079 33.64H75.9199C75.9626 34.056 76.1066 34.376 76.3519 34.6C76.5973 34.8133 76.9173 34.92 77.3119 34.92C77.7173 34.92 78.0373 34.8293 78.2719 34.648C78.5066 34.456 78.6239 34.1947 78.6239 33.864C78.6239 33.5867 78.5279 33.3573 78.3359 33.176C78.1546 32.9947 77.9253 32.8453 77.6479 32.728C77.3813 32.6107 76.9973 32.4773 76.4959 32.328C75.7706 32.104 75.1786 31.88 74.7199 31.656C74.2613 31.432 73.8666 31.1013 73.5359 30.664C73.2053 30.2267 73.0399 29.656 73.0399 28.952C73.0399 27.9067 73.4186 27.0907 74.1759 26.504C74.9333 25.9067 75.9199 25.608 77.1359 25.608C78.3733 25.608 79.3706 25.9067 80.1279 26.504C80.8853 27.0907 81.2906 27.912 81.3439 28.968H78.3839C78.3626 28.6053 78.2293 28.3227 77.9839 28.12C77.7386 27.9067 77.4239 27.8 77.0399 27.8C76.7093 27.8 76.4426 27.8907 76.2399 28.072C76.0373 28.2427 75.9359 28.4933 75.9359 28.824C75.9359 29.1867 76.1066 29.4693 76.4479 29.672C76.7893 29.8747 77.3226 30.0933 78.0479 30.328C78.7733 30.5733 79.3599 30.808 79.8079 31.032C80.2666 31.256 80.6613 31.5813 80.9919 32.008C81.3226 32.4347 81.4879 32.984 81.4879 33.656C81.4879 34.296 81.3226 34.8773 80.9919 35.4C80.6719 35.9227 80.2026 36.3387 79.5839 36.648C78.9653 36.9573 78.2346 37.112 77.3919 37.112ZM88.1477 34.68V37H86.7557C85.7637 37 84.9904 36.76 84.4357 36.28C83.881 35.7893 83.6037 34.9947 83.6037 33.896V30.344H82.5157V28.072H83.6037V25.896H86.3397V28.072H88.1317V30.344H86.3397V33.928C86.3397 34.1947 86.4037 34.3867 86.5317 34.504C86.6597 34.6213 86.873 34.68 87.1717 34.68H88.1477ZM89.1277 32.52C89.1277 31.6027 89.2984 30.7973 89.6397 30.104C89.9917 29.4107 90.4664 28.8773 91.0637 28.504C91.661 28.1307 92.3277 27.944 93.0637 27.944C93.693 27.944 94.2424 28.072 94.7117 28.328C95.1917 28.584 95.5597 28.92 95.8157 29.336V28.072H98.5517V37H95.8157V35.736C95.549 36.152 95.1757 36.488 94.6957 36.744C94.2264 37 93.677 37.128 93.0477 37.128C92.3224 37.128 91.661 36.9413 91.0637 36.568C90.4664 36.184 89.9917 35.6453 89.6397 34.952C89.2984 34.248 89.1277 33.4373 89.1277 32.52ZM95.8157 32.536C95.8157 31.8533 95.6237 31.3147 95.2397 30.92C94.8664 30.5253 94.4077 30.328 93.8637 30.328C93.3197 30.328 92.8557 30.5253 92.4717 30.92C92.0984 31.304 91.9117 31.8373 91.9117 32.52C91.9117 33.2027 92.0984 33.7467 92.4717 34.152C92.8557 34.5467 93.3197 34.744 93.8637 34.744C94.4077 34.744 94.8664 34.5467 95.2397 34.152C95.6237 33.7573 95.8157 33.2187 95.8157 32.536ZM103.267 29.56C103.587 29.0693 103.987 28.6853 104.467 28.408C104.947 28.12 105.48 27.976 106.067 27.976V30.872H105.315C104.632 30.872 104.12 31.0213 103.779 31.32C103.438 31.608 103.267 32.12 103.267 32.856V37H100.531V28.072H103.267V29.56ZM112.351 34.68V37H110.959C109.967 37 109.193 36.76 108.639 36.28C108.084 35.7893 107.807 34.9947 107.807 33.896V30.344H106.719V28.072H107.807V25.896H110.543V28.072H112.335V30.344H110.543V33.928C110.543 34.1947 110.607 34.3867 110.735 34.504C110.863 34.6213 111.076 34.68 111.375 34.68H112.351ZM122.291 32.392C122.291 32.648 122.275 32.9147 122.243 33.192H116.051C116.093 33.7467 116.269 34.1733 116.579 34.472C116.899 34.76 117.288 34.904 117.747 34.904C118.429 34.904 118.904 34.616 119.171 34.04H122.083C121.933 34.6267 121.661 35.1547 121.267 35.624C120.883 36.0933 120.397 36.4613 119.811 36.728C119.224 36.9947 118.568 37.128 117.843 37.128C116.968 37.128 116.189 36.9413 115.507 36.568C114.824 36.1947 114.291 35.6613 113.907 34.968C113.523 34.2747 113.331 33.464 113.331 32.536C113.331 31.608 113.517 30.7973 113.891 30.104C114.275 29.4107 114.808 28.8773 115.491 28.504C116.173 28.1307 116.957 27.944 117.843 27.944C118.707 27.944 119.475 28.1253 120.147 28.488C120.819 28.8507 121.341 29.368 121.715 30.04C122.099 30.712 122.291 31.496 122.291 32.392ZM119.491 31.672C119.491 31.2027 119.331 30.8293 119.011 30.552C118.691 30.2747 118.291 30.136 117.811 30.136C117.352 30.136 116.963 30.2693 116.643 30.536C116.333 30.8027 116.141 31.1813 116.067 31.672H119.491ZM123.19 32.52C123.19 31.6027 123.361 30.7973 123.702 30.104C124.054 29.4107 124.529 28.8773 125.126 28.504C125.724 28.1307 126.39 27.944 127.126 27.944C127.713 27.944 128.246 28.0667 128.726 28.312C129.217 28.5573 129.601 28.888 129.878 29.304V25.16H132.614V37H129.878V35.72C129.622 36.1467 129.254 36.488 128.774 36.744C128.305 37 127.756 37.128 127.126 37.128C126.39 37.128 125.724 36.9413 125.126 36.568C124.529 36.184 124.054 35.6453 123.702 34.952C123.361 34.248 123.19 33.4373 123.19 32.52ZM129.878 32.536C129.878 31.8533 129.686 31.3147 129.302 30.92C128.929 30.5253 128.47 30.328 127.926 30.328C127.382 30.328 126.918 30.5253 126.534 30.92C126.161 31.304 125.974 31.8373 125.974 32.52C125.974 33.2027 126.161 33.7467 126.534 34.152C126.918 34.5467 127.382 34.744 127.926 34.744C128.47 34.744 128.929 34.5467 129.302 34.152C129.686 33.7573 129.878 33.2187 129.878 32.536Z" fill="white"/>
</g>
<defs>
<filter id="filter0_d_24_3850" x="0" y="0" width="174" height="62" filterUnits="userSpaceOnUse" color-interpolation-filters="sRGB">
<feFlood flood-opacity="0" result="BackgroundImageFix"/>
<feColorMatrix in="SourceAlpha" type="matrix" values="0 0 0 0 0 0 0 0 0 0 0 0 0 0 0 0 0 0 127 0" result="hardAlpha"/>
<feMorphology radius="4" operator="dilate" in="SourceAlpha" result="effect1_dropShadow_24_3850"/>
<feOffset/>
<feComposite in2="hardAlpha" operator="out"/>
<feColorMatrix type="matrix" values="0 0 0 0 0.208646 0 0 0 0 0.604492 0 0 0 0 0.484818 0 0 0 0.26 0"/>
<feBlend mode="normal" in2="BackgroundImageFix" result="effect1_dropShadow_24_3850"/>
<feBlend mode="normal" in="SourceGraphic" in2="effect1_dropShadow_24_3850" result="shape"/>
</filter>
</defs>
</svg>
